<svg width="18" height="17" viewBox="0 0 18 17" fill="none" xmlns="http://www.w3.org/2000/svg">
<path id="Vector" d="M17.5 15.4063C17.5 16.2865 16.7865 17 15.9062 17H2.09375C1.21354 17 0.5 16.2865 0.5 15.4063V6.66467C0.500003 6.423 0.554967 6.18449 0.660736 5.96719C0.766504 5.74989 0.920306 5.55949 1.11051 5.41039C1.9377 4.76197 2.62128 4.23616 6.56246 1.37584C7.1211 0.968541 8.22959 -0.0115163 9 0.000104768C9.77025 -0.0116491 10.8792 0.968707 11.4375 1.37581C15.3783 4.23583 16.0628 4.76236 16.8895 5.41039C17.0797 5.55949 17.2335 5.74989 17.3393 5.96719C17.445 6.18449 17.5 6.423 17.5 6.66467V15.4063ZM15.3197 8.87836C15.2346 8.75457 15.064 8.72579 14.9432 8.81504C14.1847 9.37527 13.1017 10.1666 11.4375 11.3743C10.8789 11.7816 9.77041 12.7616 9 12.7499C8.22932 12.7613 7.12206 11.7823 6.56246 11.3743C4.89852 10.1667 3.81543 9.37534 3.05681 8.81504C2.93598 8.72579 2.76542 8.75457 2.68032 8.87836L2.3791 9.31651C2.34005 9.37327 2.3246 9.44298 2.33599 9.51092C2.34738 9.57887 2.38473 9.63972 2.44016 9.68064C3.20008 10.2417 4.2814 11.0317 5.93655 12.2329C6.60971 12.7237 7.81332 13.8204 9 13.8125C10.1861 13.8205 11.3893 12.7244 12.0634 12.2329C13.7186 11.0316 14.8 10.2417 15.5598 9.68064C15.6152 9.63972 15.6526 9.57887 15.664 9.51092C15.6754 9.44298 15.6599 9.37327 15.6209 9.31651L15.3197 8.87836Z" fill="white"/>
</svg>
