<svg width="18" height="16" viewBox="0 0 18 16" fill="none" xmlns="http://www.w3.org/2000/svg">
<path id="Vector" d="M9 0C6.94613 0 5.28125 1.66488 5.28125 3.71875C5.28125 5.3792 7.71172 8.40556 8.64288 9.50406C8.83148 9.7266 9.16882 9.7266 9.35712 9.50406C10.2883 8.40556 12.7188 5.3792 12.7188 3.71875C12.7188 1.66488 11.0539 0 9 0ZM1.09382 6.37352C0.918559 6.44362 0.76832 6.56462 0.662477 6.72091C0.556634 6.87721 0.500042 7.06162 0.5 7.25038L0.5 14.6383C0.5 14.9724 0.837344 15.2008 1.14753 15.0769L5.22222 13.2222V6.34313C4.96132 5.87149 4.74793 5.41226 4.59505 4.97309L1.09382 6.37352ZM9 10.6153C8.58474 10.6153 8.19191 10.4329 7.92245 10.1147C7.34221 9.42998 6.72507 8.65023 6.16667 7.8504V13.2219L11.8333 15.1108V7.8507C11.2749 8.65023 10.6581 9.43028 10.0776 10.115C9.80809 10.4329 9.41526 10.6153 9 10.6153ZM16.8525 4.75646L12.7778 6.61111V15.1111L16.9062 13.4598C17.0815 13.3897 17.2317 13.2688 17.3376 13.1125C17.4434 12.9562 17.5 12.7717 17.5 12.583V5.19504C17.5 4.86094 17.1627 4.6325 16.8525 4.75646Z" fill="white"/>
</svg>
